<svg id="Group_392" data-name="Group 392" xmlns="http://www.w3.org/2000/svg" width="86.948" height="41.643" viewBox="0 0 86.948 41.643">
  <path id="Path_3549" data-name="Path 3549" d="M58.322,25.064h69.447l-9.044,9.312a4.323,4.323,0,0,0,0,6.008,4.093,4.093,0,0,0,2.9,1.258,3.919,3.919,0,0,0,2.9-1.258l16.1-16.578a4.362,4.362,0,0,0,1.222-2.989,4.228,4.228,0,0,0-1.222-2.989L124.53,1.25a4.029,4.029,0,0,0-5.836,0,4.323,4.323,0,0,0,0,6.008l9.044,9.312H58.322C53.412,17.157,54.136,25.064,58.322,25.064Z" transform="translate(-54.906 0)" fill="#ff6301"/>
</svg>
