<!-- Generated by IcoMoon.io -->
<svg version="1.1" xmlns="http://www.w3.org/2000/svg" width="890" height="1024" viewBox="0 0 890 1024">
<title></title>
<g id="icomoon-ignore">
</g>
<path d="M821.253 417.583c10.95-10.676 17.741-25.573 17.741-42.055 0-29.457-21.691-53.847-49.971-58.070l-0.322-0.040-194.834-28.355c-3.903-0.582-7.135-3.015-8.814-6.361l-0.031-0.068-87.134-176.5c-9.804-19.552-29.691-32.738-52.657-32.738s-42.853 13.186-52.503 32.4l-0.154 0.338-87.134 176.551c-1.711 3.413-4.942 5.845-8.78 6.421l-0.065 0.008-194.834 28.304c-28.598 4.267-50.285 28.655-50.285 58.109 0 16.483 6.792 31.38 17.73 42.045l0.012 0.012 140.979 137.427c2.193 2.137 3.553 5.119 3.553 8.42 0 0.714-0.064 1.414-0.186 2.093l0.011-0.071-33.279 194.004c-0.538 2.985-0.845 6.421-0.845 9.929 0 32.434 26.293 58.727 58.727 58.727 9.994 0 19.405-2.496 27.643-6.9l-0.315 0.154 174.268-91.618c1.585-0.85 3.467-1.35 5.466-1.35s3.882 0.5 5.529 1.381l-0.063-0.031 174.258 91.618c7.92 4.246 17.327 6.74 27.316 6.74 32.434 0 58.727-26.293 58.727-58.727 0-3.506-0.307-6.94-0.896-10.277l0.052 0.353-33.249-194.004c-0.108-0.597-0.169-1.285-0.169-1.987 0-3.297 1.358-6.277 3.545-8.411l0.002-0.002zM630.586 573.343l33.279 194.056c0.108 0.598 0.169 1.285 0.169 1.988 0 6.485-5.257 11.741-11.741 11.741-2.001 0-3.886-0.501-5.535-1.384l0.063 0.031-174.268-91.618c-7.922-4.25-17.333-6.746-27.327-6.746s-19.404 2.497-27.642 6.9l0.315-0.154-174.268 91.618c-1.586 0.852-3.471 1.353-5.472 1.353-6.485 0-11.741-5.257-11.741-11.741 0-0.702 0.062-1.39 0.18-2.058l-0.010 0.071 33.279-194.045c0.538-2.984 0.845-6.419 0.845-9.925 0-16.479-6.789-31.372-17.723-42.034l-0.012-0.012-140.958-137.437c-2.191-2.135-3.551-5.115-3.551-8.413 0-5.892 4.34-10.77 9.997-11.613l0.064-0.008 194.834-28.314c19.508-2.911 35.659-15.065 44.058-31.785l0.154-0.338 87.134-176.551c1.959-3.914 5.938-6.554 10.533-6.554s8.575 2.64 10.503 6.487l0.031 0.068 87.134 176.551c8.552 17.059 24.703 29.213 43.89 32.083l0.322 0.040 194.823 28.314c5.738 0.835 10.097 5.721 10.097 11.626 0 3.295-1.357 6.273-3.543 8.405l-0.002 0.002-141.020 137.427c-10.946 10.674-17.736 25.567-17.736 42.046 0 3.507 0.307 6.941 0.897 10.279l-0.052-0.353zM719.624 106.082c-3.821-2.789-8.611-4.462-13.792-4.462-7.783 0-14.684 3.777-18.971 9.598l-0.046 0.065-24.936 34.313c-2.808 3.824-4.493 8.625-4.493 13.819 0 12.977 10.52 23.498 23.498 23.498 7.783 0 14.682-3.784 18.958-9.613l0.046-0.066 24.936-34.313c2.798-3.825 4.477-8.622 4.477-13.812 0-7.79-3.783-14.696-9.612-18.981l-0.065-0.046zM228.461 145.493l-24.936-34.313c-4.322-5.894-11.221-9.678-19.004-9.678-12.977 0-23.498 10.52-23.498 23.498 0 5.194 1.685 9.995 4.539 13.885l-0.046-0.066 24.936 34.313c4.322 5.894 11.221 9.678 19.004 9.678 12.977 0 23.498-10.52 23.498-23.498 0-5.194-1.685-9.995-4.539-13.885l0.046 0.066zM86.182 600.388c-3.179-9.493-11.992-16.213-22.374-16.213-2.58 0-5.064 0.415-7.387 1.182l0.166-0.048-40.343 13.113c-9.929 2.893-17.062 11.911-17.062 22.596 0 12.975 10.518 23.493 23.493 23.493 2.882 0 5.644-0.519 8.195-1.469l-0.162 0.053 40.343-13.113c9.517-3.165 16.259-11.99 16.259-22.389 0-2.575-0.413-5.053-1.177-7.372l0.047 0.166zM445.232 861.187c-12.963 0.029-23.464 10.53-23.493 23.49v42.424c0.275 12.762 10.685 23.003 23.488 23.003s23.213-10.241 23.487-22.977v-42.447c0-0.003 0-0.007 0-0.010 0-12.969-10.514-23.483-23.483-23.483v0zM874.218 598.453l-40.343-13.113c-2.077-0.666-4.466-1.050-6.944-1.050-12.975 0-23.493 10.518-23.493 23.493 0 10.264 6.583 18.991 15.757 22.19l0.165 0.050 40.343 13.113c2.077 0.666 4.466 1.050 6.944 1.050 12.975 0 23.493-10.518 23.493-23.493 0-10.264-6.583-18.991-15.757-22.19l-0.165-0.050z"></path>
</svg>
